<svg id="6d8b3775-63a2-4549-8a75-948c2b721315" data-name="Layer 1" xmlns="http://www.w3.org/2000/svg"
     viewBox="0 0 358 479">
    <title>Asset 6</title>
    <g id="3bedb66a-2950-4668-83e9-3b5f1ef1437f" data-name="Layer 2">
        <g id="bf1e43ec-a2e4-4cb5-9ddc-79f05092fd00" data-name="Layer 1-2">
            <path d="M358,179c0,98.86-156,300-179,300C154,479,0,277.86,0,179A179,179,0,0,1,358,179Z"
                  transform="translate(0 0)" fill="#1bad03"/>
            <path
                d="M134,207.07l-69.48-40c-0.13,2-.22,4-0.25,6.06a116.29,116.29,0,0,0,1.9,22.41,114.9,114.9,0,0,0,75.24,87.62A119.1,119.1,0,0,0,155.26,287a115.56,115.56,0,0,0,20.53,2.42h6.39q5.63-.17,11.32-0.89a114.86,114.86,0,0,0,98.13-91.66c0.41-2.08.77-4.17,1.06-6.28a115.65,115.65,0,0,0,1.09-15.89v-3a111.91,111.91,0,0,0-1.29-14.27,115.82,115.82,0,0,0-11.29-35Zm0-28.88L69.3,141c-0.88,2.84-1.64,5.74-2.3,8.66-0.3,1.32-.57,2.64-0.82,4l67.8,39,140.86-81q-2.08-3.15-4.36-6.15c-0.66-.87-1.34-1.74-2-2.59l-1.12-1.38Zm0-28.85L79.33,117.89a115,115,0,0,0-5.62,11.21L134,163.76,258.58,92.1a115.48,115.48,0,0,0-10.09-8.64Zm0-28.88L94.12,97.53a115.8,115.8,0,0,0-8,9.83L134,134.9,236.9,75.7A114.2,114.2,0,0,0,223.49,69Z"
                transform="translate(0 0)" fill="#fff"/>
        </g>
    </g>
</svg>
